<svg width="111" height="100" viewBox="0 0 111 100" fill="none" xmlns="http://www.w3.org/2000/svg">
<path fill-rule="evenodd" clip-rule="evenodd" d="M41.387 8C47.547 -2.66667 62.9497 -2.66667 69.1043 8L108.331 75.9893C114.486 86.656 106.784 99.9893 94.4697 99.9893H16.0217C3.70701 99.9893 -3.98899 86.656 2.16568 75.9893L41.3817 8H41.387ZM55.2483 35.984C56.3092 35.984 57.3266 36.4054 58.0768 37.1556C58.8269 37.9057 59.2483 38.9231 59.2483 39.984V59.984C59.2483 61.0449 58.8269 62.0623 58.0768 62.8124C57.3266 63.5626 56.3092 63.984 55.2483 63.984C54.1875 63.984 53.1701 63.5626 52.4199 62.8124C51.6698 62.0623 51.2483 61.0449 51.2483 59.984V39.984C51.2483 38.9231 51.6698 37.9057 52.4199 37.1556C53.1701 36.4054 54.1875 35.984 55.2483 35.984ZM55.2483 79.984C56.3092 79.984 57.3266 79.5626 58.0768 78.8124C58.8269 78.0623 59.2483 77.0449 59.2483 75.984C59.2483 74.9231 58.8269 73.9057 58.0768 73.1556C57.3266 72.4054 56.3092 71.984 55.2483 71.984C54.1875 71.984 53.1701 72.4054 52.4199 73.1556C51.6698 73.9057 51.2483 74.9231 51.2483 75.984C51.2483 77.0449 51.6698 78.0623 52.4199 78.8124C53.1701 79.5626 54.1875 79.984 55.2483 79.984Z" fill="#ED0028"/>
</svg>
